HIERARCHY
ROOT hip
{
	OFFSET 0.000000 0.000000 0.000000 
	CHANNELS 6 Xposition Yposition Zposition Xrotation Zrotation Yrotation
	JOINT abdomen
	{
		OFFSET 0.000000 3.402643 0.000000 
		CHANNELS 3 Xrotation Zrotation Yrotation
		JOINT chest
		{
			OFFSET 0.000000 8.438565 -0.680529 
			CHANNELS 3 Xrotation Zrotation Yrotation
			JOINT neck
			{
				OFFSET 0.000000 10.207942 -0.272212 
				CHANNELS 3 Xrotation Zrotation Yrotation
				JOINT head
				{
					OFFSET 0.000000 3.130431 0.000000 
					CHANNELS 3 Xrotation Zrotation Yrotation
					End Site
					{
						OFFSET 0.000000 3.130435 0.000000 
					}
				}
			}
			JOINT lCollar
			{
				OFFSET 3.470700 6.669187 -0.816635 
				CHANNELS 3 Yrotation Zrotation Xrotation
				JOINT lShldr
				{
					OFFSET 3.198488 0.000000 0.000000 
					CHANNELS 3 Zrotation Yrotation Xrotation
					JOINT lForeArm
					{
						OFFSET 10.139888 0.000000 0.000000 
						CHANNELS 3 Yrotation Zrotation Xrotation
						JOINT lHand
						{
							OFFSET 8.370511 0.000000 0.000000 
							CHANNELS 3 Zrotation Yrotation Xrotation
							End Site
							{
								OFFSET 4.083176 0.000000 0.000000 
							}
						}
					}
				}
			}
			JOINT rCollar
			{
				OFFSET -3.470700 6.669187 -0.816635 
				CHANNELS 3 Yrotation Zrotation Xrotation
				JOINT rShldr
				{
					OFFSET -3.198488 0.000000 0.000000 
					CHANNELS 3 Zrotation Yrotation Xrotation
					JOINT rForeArm
					{
						OFFSET -10.139888 0.000000 0.000000 
						CHANNELS 3 Yrotation Zrotation Xrotation
						JOINT rHand
						{
							OFFSET -8.370511 0.000000 0.000000 
							CHANNELS 3 Zrotation Yrotation Xrotation
							End Site
							{
								OFFSET -4.083176 0.000000 0.000000 
							}
						}
					}
				}
			}
		}
	}
	JOINT lThigh
	{
		OFFSET 5.308129 -1.633274 1.361059 
		CHANNELS 3 Xrotation Zrotation Yrotation
		JOINT lShin
		{
			OFFSET -2.041588 -20.007561 0.000000 
			CHANNELS 3 Xrotation Zrotation Yrotation
			JOINT lFoot
			{
				OFFSET 0.000000 -19.190928 -1.224953 
				CHANNELS 3 Xrotation Yrotation Zrotation
				End Site
				{
					OFFSET 0.000000 -2.449906 4.627600 
				}
			}
		}
	}
	JOINT rThigh
	{
		OFFSET -5.308129 -1.633274 1.361059 
		CHANNELS 3 Xrotation Zrotation Yrotation
		JOINT rShin
		{
			OFFSET 2.041588 -20.007561 0.000000 
			CHANNELS 3 Xrotation Zrotation Yrotation
			JOINT rFoot
			{
				OFFSET 0.000000 -19.190928 -1.224953 
				CHANNELS 3 Xrotation Yrotation Zrotation
				End Site
				{
					OFFSET 0.000000 -2.449906 4.627600 
				}
			}
		}
	}
}
MOTION
Frames: 17
Frame Time: 0.041667
-0.100632 53.917469 -1.053952 0.000000 0.000000 0.000000 2.678220 0.537458 0.195003 -1.757393 0.622170 -0.109200 -13.681825 0.000000 -9.547150 6.781820 0.000000 -35.321411 1.597394 -5.555708 -0.196191 -38.804874 14.168760 17.187534 -88.907471 -46.960701 19.894245 -9.908495 10.890265 11.775342 -1.955626 4.563228 -0.296167 39.046837 -17.711107 17.510777 89.651505 46.052303 -0.854056 -8.331283 -21.165201 29.998201 -6.562271 3.908108 0.168384 10.041328 -2.992581 -0.277090 -3.772434 0.851436 -1.202469 -6.573966 -3.984412 0.046909 10.034788 2.999521 0.101501 -3.825604 -1.396786 0.959380 
-0.098281 53.907753 -1.022188 0.000000 0.000000 0.000000 2.798346 0.538784 0.194643 -1.472114 0.619901 -0.111406 -13.362171 0.000000 -7.404603 6.781820 0.000000 -29.582590 1.597394 -5.555708 -0.196191 -38.804874 14.168760 17.187534 -88.907471 -46.960701 19.894245 -9.908495 10.890265 11.775342 -1.955626 4.563228 -0.296167 39.046837 -17.711107 17.510777 89.651505 46.052303 -0.854056 -8.331283 -21.165201 29.998201 -6.526802 3.910523 0.166636 10.050485 -2.995013 -0.287630 -3.810364 0.860826 -1.201857 -6.528687 -3.985675 0.058133 10.035922 2.996763 0.091572 -3.876732 -1.399057 0.968502 
-0.095717 53.897148 -0.987543 0.000000 0.000000 0.000000 2.908242 0.541110 0.194356 -1.187011 0.618462 -0.114001 -13.013543 0.000000 -2.749970 6.781820 0.000000 -14.729558 1.597394 -5.555708 -0.196191 -38.804874 14.168760 17.187534 -88.907471 -46.960701 19.894245 -9.908495 10.890265 11.775342 -1.955626 4.563228 -0.296167 39.046837 -17.711107 17.510777 89.651505 46.052303 -0.854056 -8.331283 -21.165201 29.998201 -6.483317 3.907266 0.165344 10.039130 -3.000016 -0.277584 -3.850266 0.861438 -1.191783 -6.514639 -3.988249 0.049144 10.067025 2.994977 0.093355 -3.918363 -1.398710 0.977597 
-0.092956 53.885727 -0.950245 0.000000 0.000000 0.000000 3.006730 0.544364 0.194136 -0.904810 0.617795 -0.116955 -12.638206 0.000000 2.668342 6.781820 0.000000 3.486546 1.597394 -5.555708 -0.196191 -38.804874 14.168760 17.187534 -88.907471 -46.960701 19.894245 -9.908495 10.890265 11.775342 -1.955626 4.563228 -0.296167 39.046837 -17.711107 17.510777 89.651505 46.052303 -0.854056 -8.331283 -21.165201 29.998201 -6.464796 3.902030 0.154882 10.060777 -2.996811 -0.268895 -3.890070 0.862409 -1.201228 -6.465177 -3.994352 0.050988 10.065456 3.000286 0.093709 -3.970084 -1.398971 0.977028 
-0.090015 53.873566 -0.910512 0.000000 0.000000 0.000000 3.092632 0.548476 0.193979 -0.628238 0.617844 -0.120239 -12.238371 0.000000 7.101912 6.781820 0.000000 19.314533 1.597394 -5.555708 -0.196191 -38.804874 14.168760 17.187534 -88.907471 -46.960701 19.894245 -9.908495 10.890265 11.775342 -1.955626 4.563228 -0.296167 39.046837 -17.711107 17.510777 89.651505 46.052303 -0.854056 -8.331283 -21.165201 29.998201 -6.409247 3.897991 0.162101 10.069495 -3.000722 -0.279530 -3.950061 0.862442 -1.181266 -6.420257 -3.994644 0.062175 10.066051 2.999350 0.083902 -4.012128 -1.397116 0.976647 
-0.086911 53.860714 -0.868559 0.000000 0.000000 0.000000 3.164773 0.553379 0.193880 -0.360020 0.618555 -0.123827 -11.816188 0.000000 8.802372 6.781820 0.000000 27.003389 1.597394 -5.555708 -0.196191 -38.804874 14.168760 17.187534 -88.907471 -46.960701 19.894245 -9.908495 10.890265 11.775342 -1.955626 4.563228 -0.296167 39.046837 -17.711107 17.510777 89.651505 46.052303 -0.854056 -8.331283 -21.165201 29.998201 -6.366683 3.892977 0.160883 10.081855 -2.993355 -0.279674 -4.009562 0.864554 -1.190523 -6.371100 -3.999835 0.063986 10.088017 2.992898 0.094995 -4.091268 -1.407364 0.985107 
-0.083656 53.847248 -0.824594 0.000000 0.000000 0.000000 3.221975 0.559005 0.193835 -0.102884 0.619875 -0.127691 -11.373761 0.000000 6.612621 6.781820 0.000000 22.644043 1.597394 -5.555708 -0.196191 -38.804874 14.168760 17.187534 -88.907471 -46.960701 19.894245 -9.908495 10.890265 11.775342 -1.955626 4.563228 -0.296167 39.046837 -17.711107 17.510777 89.651505 46.052303 -0.854056 -8.331283 -21.165201 29.998201 -6.142020 3.939884 0.152796 10.066379 -3.012330 -0.270044 -4.209795 0.861458 -1.218344 -6.158924 -4.056523 0.051569 10.072681 3.010311 0.095010 -4.290358 -1.397172 1.021959 
-0.080268 53.833225 -0.778819 0.000000 0.000000 0.000000 3.263062 0.565291 0.193839 0.140446 0.621752 -0.131805 -10.913135 0.000000 1.740794 6.781820 0.000000 9.695831 1.597394 -5.555708 -0.196191 -38.804874 14.168760 17.187534 -88.907471 -46.960701 19.894245 -9.908495 10.890265 11.775342 -1.955626 4.563228 -0.296167 39.046837 -17.711107 17.510777 89.651505 46.052303 -0.854056 -8.331283 -21.165201 29.998201 -6.099769 3.933572 0.150936 10.087814 -3.007707 -0.280752 -4.267406 0.872228 -1.217642 -6.114058 -4.055452 0.063426 10.104582 3.005833 0.096614 -4.359094 -1.406855 1.040293 
-0.076761 53.818707 -0.731435 0.000000 0.000000 0.000000 3.286856 0.572174 0.193888 0.367244 0.624139 -0.136145 -10.436304 0.000000 -4.013639 6.781820 0.000000 -6.539762 1.597394 -5.555708 -0.196191 -38.804874 14.168760 17.187534 -88.907471 -46.960701 19.894245 -9.908495 10.890265 11.775342 -1.955626 4.563228 -0.296167 39.046837 -17.711107 17.510777 89.651505 46.052303 -0.854056 -8.331283 -21.165201 29.998201 -6.163377 3.906364 0.152761 10.178805 -3.010055 -0.287128 -4.296361 0.876874 -1.187946 -6.059628 -4.065238 0.055228 10.103009 3.010087 0.106646 -4.411209 -1.404251 1.030062 
-0.073149 53.803749 -0.682634 0.000000 0.000000 0.000000 3.292180 0.579594 0.193978 0.574782 0.626985 -0.140685 -9.945211 0.000000 -8.851195 6.781820 0.000000 -20.761206 1.597394 -5.555708 -0.196191 -38.804874 14.168760 17.187534 -88.907471 -46.960701 19.894245 -9.908495 10.890265 11.775342 -1.955626 4.563228 -0.296167 39.046837 -17.711107 17.510777 89.651505 46.052303 -0.854056 -8.331283 -21.165201 29.998201 -6.109344 3.900597 0.150980 10.273380 -2.998753 -0.301817 -4.444182 0.884904 -1.186373 -6.134995 -4.041405 0.062689 10.282482 2.988159 0.116455 -4.509228 -1.418247 1.038084 
-0.069446 53.788422 -0.632603 0.000000 0.000000 0.000000 3.277858 0.587492 0.194105 0.760335 0.630247 -0.145402 -9.441748 0.000000 -10.972445 6.781820 0.000000 -27.667130 1.597394 -5.555708 -0.196191 -38.804874 14.168760 17.187534 -88.907471 -46.960701 19.894245 -9.908495 10.890265 11.775342 -1.955626 4.563228 -0.296167 39.046837 -17.711107 17.510777 89.651505 46.052303 -0.854056 -8.331283 -21.165201 29.998201 -6.107690 3.903186 0.150828 10.404588 -3.002168 -0.310800 -4.582924 0.887938 -1.185211 -6.124515 -4.057300 0.062983 10.409983 3.004475 0.125816 -4.651801 -1.420102 1.036150 
-0.065665 53.772766 -0.581527 0.000000 0.000000 0.000000 3.242714 0.595811 0.194266 0.921177 0.633877 -0.150271 -8.927763 0.000000 -9.167505 6.781820 0.000000 -23.632877 1.597394 -5.555708 -0.196191 -38.804874 14.168760 17.187534 -88.907471 -46.960701 19.894245 -9.908495 10.890265 11.775342 -1.955626 4.563228 -0.296167 39.046837 -17.711107 17.510777 89.651505 46.052303 -0.854056 -8.331283 -21.165201 29.998201 -6.174562 3.908612 0.143498 10.672251 -3.025406 -0.329577 -4.779508 0.899831 -1.173446 -6.078797 -4.057385 0.074229 10.451723 3.000671 0.128597 -4.748611 -1.437473 1.034206 
-0.061821 53.756844 -0.529584 0.000000 0.000000 0.000000 3.185569 0.604497 0.194456 1.054583 0.637834 -0.155272 -8.405053 0.000000 -4.584864 6.781820 0.000000 -11.741212 1.597394 -5.555708 -0.196191 -38.804874 14.168760 17.187534 -88.907471 -46.960701 19.894245 -9.908495 10.890265 11.775342 -1.955626 4.563228 -0.296167 39.046837 -17.711107 17.510777 89.651505 46.052303 -0.854056 -8.331283 -21.165201 29.998201 -6.267377 3.907293 0.147323 11.005428 -3.028189 -0.370768 -5.025923 0.909931 -1.161337 -6.208450 -4.073162 0.069177 10.851937 3.020066 0.165634 -5.022736 -1.440132 1.030663 
-0.057925 53.740711 -0.476949 0.000000 0.000000 0.000000 3.105248 0.613495 0.194672 1.157825 0.642076 -0.160381 -7.875381 0.000000 1.037380 6.781820 0.000000 3.248211 1.597394 -5.555708 -0.196191 -38.804874 14.168760 17.187534 -88.907471 -46.960701 19.894245 -9.908495 10.890265 11.775342 -1.955626 4.563228 -0.296167 39.046837 -17.711107 17.510777 89.651505 46.052303 -0.854056 -8.331283 -21.165201 29.998201 -6.539323 3.931066 0.147810 11.701905 -3.069626 -0.429427 -5.450435 0.920249 -1.128085 -6.246895 -4.085553 0.067723 11.071531 3.029773 0.199835 -5.191513 -1.453557 1.027994 
-0.053990 53.724415 -0.423792 0.000000 0.000000 0.000000 3.000573 0.622754 0.194911 1.228177 0.646562 -0.165578 -7.340471 0.000000 5.961114 6.781820 0.000000 16.575689 1.597394 -5.555708 -0.196191 -38.804874 14.168760 17.187534 -88.907471 -46.960701 19.894245 -9.908495 10.890265 11.775342 -1.955626 4.563228 -0.296167 39.046837 -17.711107 17.510777 89.651505 46.052303 -0.854056 -8.331283 -21.165201 29.998201 -6.627717 3.934998 0.151183 12.031369 -3.081774 -0.461828 -5.694827 0.939095 -1.115420 -6.630251 -4.121535 0.073066 11.996194 3.086996 0.264862 -5.743969 -1.466995 1.000664 
-0.050030 53.708015 -0.370285 0.000000 0.000000 0.000000 2.870367 0.632225 0.195169 1.262914 0.651253 -0.170841 -6.802011 0.000000 8.448278 6.781820 0.000000 23.481670 1.597394 -5.555708 -0.196191 -38.804874 14.168760 17.187534 -88.907471 -46.960701 19.894245 -9.908495 10.890265 11.775342 -1.955626 4.563228 -0.296167 39.046837 -17.711107 17.510777 89.651505 46.052303 -0.854056 -8.331283 -21.165201 29.998201 -6.712954 3.945673 0.144441 12.354386 -3.120946 -0.476642 -5.933006 0.934293 -1.094246 -6.703127 -4.151865 0.070709 12.296672 3.133363 0.298505 -5.964696 -1.470203 0.988046 
-0.046056 53.691555 -0.316590 0.000000 0.000000 0.000000 2.714261 0.641858 0.195443 1.260516 0.656114 -0.176150 -6.261672 0.000000 7.302873 6.781820 0.000000 20.681597 1.597394 -5.555708 -0.196191 -38.804874 14.168760 17.187534 -88.907471 -46.960701 19.894245 -9.908495 10.890265 11.775342 -1.955626 4.563228 -0.296167 39.046837 -17.711107 17.510777 89.651505 46.052303 -0.854056 -8.331283 -21.165201 29.998201 -6.806449 3.961223 0.138571 12.679857 -3.146913 -0.509986 -6.158140 0.948444 -1.072113 -6.774581 -4.167628 0.077682 12.585897 3.143548 0.327882 -6.183072 -1.481542 0.984468 
